<?xml version="1.0" encoding="UTF-8" standalone="no"?>
<!-- Uploaded to: SVG Repo, www.svgrepo.com, Transformed by: SVG Repo Mixer Tools -->

<svg
   fill="#940000"
   version="1.1"
   id="Layer_1"
   viewBox="0 0 495.996 495.996"
   xml:space="preserve"
   width="800px"
   height="800px"
   stroke="#940000"
   sodipodi:docname="alien-svgrepo-com.svg"
   inkscape:version="1.2.2 (b0a8486541, 2022-12-01)"
   xmlns:inkscape="http://www.inkscape.org/namespaces/inkscape"
   xmlns:sodipodi="http://sodipodi.sourceforge.net/DTD/sodipodi-0.dtd"
   xmlns="http://www.w3.org/2000/svg"
   xmlns:svg="http://www.w3.org/2000/svg"><defs
   id="defs24" /><sodipodi:namedview
   id="namedview22"
   pagecolor="#505050"
   bordercolor="#ffffff"
   borderopacity="1"
   inkscape:showpageshadow="0"
   inkscape:pageopacity="0"
   inkscape:pagecheckerboard="1"
   inkscape:deskcolor="#505050"
   showgrid="false"
   inkscape:zoom="0.69875"
   inkscape:cx="399.28444"
   inkscape:cy="566.01073"
   inkscape:window-width="1366"
   inkscape:window-height="696"
   inkscape:window-x="0"
   inkscape:window-y="0"
   inkscape:window-maximized="1"
   inkscape:current-layer="Layer_1" />

<g
   id="SVGRepo_bgCarrier"
   stroke-width="0" />

<g
   id="SVGRepo_tracerCarrier"
   stroke-linecap="round"
   stroke-linejoin="round" />

<g
   id="SVGRepo_iconCarrier"
   transform="matrix(0.88175095,0,0,0.88175095,29.325542,29.325577)"> <g
   id="g18"> <g
   id="g16"> <g
   id="g14"> <path
   d="m 447.273,95.524 c -3.28,-19.072 -18.16,-34.52 -37.008,-38.464 -14.456,-3.024 -29.232,0.496 -40.512,9.664 -11.272,9.168 -17.744,22.76 -17.744,37.272 0,5.536 0.984,10.992 2.92,16.272 l -19.288,38.568 c -14.648,8.664 -23.632,24.192 -23.632,41.16 0,1.888 0.168,3.696 0.384,5.352 l -2.072,4.144 c -2.008,4.008 -6.048,6.504 -10.536,6.504 -6.496,0 -11.776,-5.28 -11.776,-11.776 v -9.92 c 5.24,-7.904 8,-16.944 8,-26.304 0,-9.36 -2.76,-18.4 -8,-26.304 V 74.3 c 7.288,-10.984 9.704,-24.016 6.808,-36.984 -4.048,-18.144 -18.92,-32.744 -37.016,-36.344 -14.424,-2.888 -29.064,0.736 -40.216,9.896 -11.168,9.168 -17.576,22.696 -17.576,37.128 0,9.36 2.76,18.4 8,26.304 v 67.392 c -5.24,7.904 -8,16.944 -8,26.304 0,9.36 2.76,18.4 8,26.304 v 9.92 c 0,6.496 -5.28,11.776 -11.776,11.776 -4.496,0 -8.528,-2.496 -10.536,-6.504 l -2.072,-4.152 c 0.216,-1.648 0.384,-3.456 0.384,-5.344 0,-16.968 -8.984,-32.504 -23.632,-41.16 L 141.089,120.26 c 3.352,-9.168 3.824,-18.896 1.344,-28.376 -4.744,-18.112 -19.528,-31.888 -37.68,-35.112 -14.176,-2.52 -28.632,1.264 -39.544,10.408 -10.936,9.16 -17.2,22.576 -17.2,36.816 0,17.888 10,34.224 25.744,42.48 L 90.457,184.9 c -1.624,4.88 -2.448,9.936 -2.448,15.096 0,18.632 11.08,35.68 27.912,43.472 l 20.088,46.192 v 34.864 c 0,29.936 8.392,59.176 24.256,84.568 l 15.744,25.2 v 61.704 h 16 V 429.7 l -18.176,-29.088 c -14.28,-22.832 -21.824,-49.144 -21.824,-76.088 v -38.192 l -24.048,-55.296 -3.168,-1.184 c -12.432,-4.688 -20.784,-16.68 -20.784,-29.856 0,-4.208 0.832,-8.336 2.464,-12.272 l 1.304,-3.136 -21.776,-50.08 -2.864,-1.264 c -11.624,-5.12 -19.128,-16.608 -19.128,-29.248 0,-9.496 4.176,-18.44 11.472,-24.544 7.384,-6.184 16.752,-8.656 26.48,-6.92 11.832,2.104 21.88,11.504 24.992,23.408 1.896,7.24 1.256,14.416 -1.912,21.32 l -1.592,3.488 24.896,49.792 2.304,1.2 c 10.704,5.552 17.36,16.392 17.36,28.256 0,1.768 -0.264,3.6 -0.56,5.32 l -0.432,2.576 4.368,8.752 c 4.744,9.472 14.264,15.352 24.848,15.352 15.312,0 27.776,-12.464 27.776,-27.776 v -15.096 l -1.584,-2.128 c -4.2,-5.632 -6.416,-12.2 -6.416,-19 0,-6.8 2.216,-13.368 6.416,-19.008 l 1.584,-2.128 V 69.132 l -1.584,-2.128 c -4.2,-5.64 -6.416,-12.208 -6.416,-19.008 0,-9.624 4.272,-18.64 11.72,-24.76 7.552,-6.184 17.112,-8.504 26.944,-6.576 11.976,2.392 21.832,12.088 24.528,24.144 2.064,9.256 0.072,18.56 -5.608,26.2 l -1.584,2.128 v 77.736 l 1.584,2.128 c 4.2,5.632 6.416,12.2 6.416,19 0,6.8 -2.216,13.368 -6.416,19.008 l -1.584,2.128 v 15.096 c 0,15.304 12.464,27.768 27.776,27.768 10.584,0 20.112,-5.88 24.848,-15.36 l 4.368,-8.744 -0.432,-2.576 c -0.296,-1.72 -0.56,-3.552 -0.56,-5.32 0,-11.864 6.656,-22.704 17.368,-28.264 l 2.304,-1.2 24.904,-49.792 -1.608,-3.496 c -1.968,-4.288 -2.968,-8.744 -2.968,-13.248 0,-9.68 4.312,-18.736 11.832,-24.848 7.624,-6.192 17.264,-8.488 27.16,-6.424 12.28,2.568 22.36,13.064 24.504,25.52 2.528,14.648 -5.136,29.048 -18.624,35 l -2.864,1.264 -21.776,50.08 1.304,3.136 c 1.632,3.936 2.464,8.064 2.464,12.272 0,13.176 -8.352,25.168 -20.792,29.848 l -3.168,1.184 -24.04,55.304 v 38.192 c 0,26.936 -7.544,53.248 -21.824,76.088 L 304.009,429.7 v 66.296 h 16 V 434.292 L 335.753,409.1 c 15.864,-25.392 24.256,-54.632 24.256,-84.576 V 289.66 l 20.088,-46.192 c 16.832,-7.792 27.912,-24.84 27.912,-43.472 0,-5.16 -0.824,-10.216 -2.448,-15.104 l 16.704,-38.424 c 18.4,-9.641 28.6,-30.12 25.008,-50.944 z"
   id="path4" /> <rect
   x="135.51601"
   y="335.99701"
   transform="matrix(-0.124,-0.9923,0.9923,-0.124,-116.5464,585.1055)"
   width="128.96201"
   height="16"
   id="rect6" /> <rect
   x="231.52699"
   y="336"
   transform="matrix(0.124,-0.9923,0.9923,0.124,-82.0416,595.0686)"
   width="128.96201"
   height="16"
   id="rect8" /> <rect
   x="240.009"
   y="271.996"
   width="16"
   height="104"
   id="rect10" /> <rect
   x="240.009"
   y="391.996"
   width="16"
   height="16"
   id="rect12" /> </g> </g> </g> </g>

</svg>
