<svg fill="#f00" height="256" stroke="#f00" stroke-width=".002186" viewBox="0 0 218.58 218.58" width="256" xmlns="http://www.w3.org/2000/svg"><path d="m160.798 64.543c-1.211-1.869-2.679-3.143-4.046-4.005-.007-2.32-.16-5.601-.712-9.385.373-4.515 1.676-29.376-13.535-40.585-9.382-6.914-19.829-10.568-30.211-10.568-8.438 0-16.474 2.398-22.629 6.752-5.543 3.922-8.596 8.188-10.212 11.191-4.78.169-14.683 2.118-19.063 14.745-4.144 11.944-.798 19.323 1.663 22.743-.161 1.978-.219 3.717-.223 5.106-1.367.862-2.835 2.136-4.046 4.005-2.74 4.229-3.206 9.9-1.386 16.859 3.403 13.012 11.344 15.876 15.581 16.451 2.61 5.218 8.346 15.882 14.086 21.24 2.293 2.14 5.274 3.946 8.86 5.37 4.577 1.816 9.411 2.737 14.366 2.737s9.789-.921 14.366-2.737c3.586-1.424 6.567-3.23 8.86-5.37 5.74-5.358 11.476-16.022 14.086-21.24 4.236-.575 12.177-3.44 15.581-16.452 1.82-6.957 1.354-12.629-1.386-16.857zm-8.289 14.328c-2.074 7.932-5.781 9.116-7.807 9.116-.144 0-.252-.008-.316-.013-2.314-.585-4.454.631-5.466 2.808-1.98 4.256-8.218 16.326-13.226 21.001-1.377 1.285-3.304 2.425-5.726 3.386-6.796 2.697-14.559 2.697-21.354 0-2.422-.961-4.349-2.101-5.726-3.386-5.008-4.675-11.246-16.745-13.226-21.001-.842-1.81-2.461-2.953-4.314-2.953-.376 0-.762.047-1.153.146-.064.006-.172.013-.315.013-2.025 0-5.732-1.185-7.807-9.115-1.021-3.903-1.012-7.016.024-8.764.603-1.016 1.459-1.358 1.739-1.446 2.683-.291 4.299-2.64 4.075-5.347-.005-.066-.18-2.39.042-5.927 3.441-1.479 8.939-4.396 13.574-9.402 2.359-2.549 4.085-5.672 5.314-8.537 3.351 2.736 8.095 5.951 14.372 8.729 10.751 4.758 32.237 7.021 41.307 7.794.375 4.317.156 7.263.15 7.333-.236 2.715 1.383 5.066 4.075 5.357.28.088 1.136.431 1.739 1.446 1.037 1.747 1.046 4.86.025 8.762zm32.064 66.779-43.715-17.485c-1.258-.502-2.665-.473-3.903.08-1.236.555-2.195 1.588-2.655 2.862l-10.989 30.382-2.176-6.256 3.462-8.463c.63-1.542.452-3.297-.477-4.681-.929-1.383-2.485-2.213-4.151-2.213h-21.355c-1.666 0-3.223.83-4.151 2.213-.929 1.384-1.107 3.139-.477 4.681l3.462 8.463-2.176 6.256-10.989-30.382c-.46-1.274-1.419-2.308-2.655-2.862-1.238-.554-2.646-.583-3.903-.08l-43.716 17.485c-13.424 5.369-22.098 18.182-22.098 32.641v35.291c0 2.762 2.239 5 5 5h184.76c2.761 0 5-2.238 5-5v-35.291c0-14.459-8.674-27.271-22.098-32.641zm-1.519 47.068c0 2.762-2.239 5-5 5h-33.57c-2.761 0-5-2.238-5-5v-15.59c0-2.762 2.239-5 5-5h33.57c2.761 0 5 2.238 5 5z" stroke="#030303" stroke-linecap="round" stroke-linejoin="round" stroke-width="4.37164"/><path d="m160.798 64.543c-1.211-1.869-2.679-3.143-4.046-4.005-.007-2.32-.16-5.601-.712-9.385.373-4.515 1.676-29.376-13.535-40.585-9.382-6.914-19.829-10.568-30.211-10.568-8.438 0-16.474 2.398-22.629 6.752-5.543 3.922-8.596 8.188-10.212 11.191-4.78.169-14.683 2.118-19.063 14.745-4.144 11.944-.798 19.323 1.663 22.743-.161 1.978-.219 3.717-.223 5.106-1.367.862-2.835 2.136-4.046 4.005-2.74 4.229-3.206 9.9-1.386 16.859 3.403 13.012 11.344 15.876 15.581 16.451 2.61 5.218 8.346 15.882 14.086 21.24 2.293 2.14 5.274 3.946 8.86 5.37 4.577 1.816 9.411 2.737 14.366 2.737s9.789-.921 14.366-2.737c3.586-1.424 6.567-3.23 8.86-5.37 5.74-5.358 11.476-16.022 14.086-21.24 4.236-.575 12.177-3.44 15.581-16.452 1.82-6.957 1.354-12.629-1.386-16.857zm-8.289 14.328c-2.074 7.932-5.781 9.116-7.807 9.116-.144 0-.252-.008-.316-.013-2.314-.585-4.454.631-5.466 2.808-1.98 4.256-8.218 16.326-13.226 21.001-1.377 1.285-3.304 2.425-5.726 3.386-6.796 2.697-14.559 2.697-21.354 0-2.422-.961-4.349-2.101-5.726-3.386-5.008-4.675-11.246-16.745-13.226-21.001-.842-1.81-2.461-2.953-4.314-2.953-.376 0-.762.047-1.153.146-.064.006-.172.013-.315.013-2.025 0-5.732-1.185-7.807-9.115-1.021-3.903-1.012-7.016.024-8.764.603-1.016 1.459-1.358 1.739-1.446 2.683-.291 4.299-2.64 4.075-5.347-.005-.066-.18-2.39.042-5.927 3.441-1.479 8.939-4.396 13.574-9.402 2.359-2.549 4.085-5.672 5.314-8.537 3.351 2.736 8.095 5.951 14.372 8.729 10.751 4.758 32.237 7.021 41.307 7.794.375 4.317.156 7.263.15 7.333-.236 2.715 1.383 5.066 4.075 5.357.28.088 1.136.431 1.739 1.446 1.037 1.747 1.046 4.86.025 8.762zm32.064 66.779-43.715-17.485c-1.258-.502-2.665-.473-3.903.08-1.236.555-2.195 1.588-2.655 2.862l-10.989 30.382-2.176-6.256 3.462-8.463c.63-1.542.452-3.297-.477-4.681-.929-1.383-2.485-2.213-4.151-2.213h-21.355c-1.666 0-3.223.83-4.151 2.213-.929 1.384-1.107 3.139-.477 4.681l3.462 8.463-2.176 6.256-10.989-30.382c-.46-1.274-1.419-2.308-2.655-2.862-1.238-.554-2.646-.583-3.903-.08l-43.716 17.485c-13.424 5.369-22.098 18.182-22.098 32.641v35.291c0 2.762 2.239 5 5 5h184.76c2.761 0 5-2.238 5-5v-35.291c0-14.459-8.674-27.271-22.098-32.641zm-1.519 47.068c0 2.762-2.239 5-5 5h-33.57c-2.761 0-5-2.238-5-5v-15.59c0-2.762 2.239-5 5-5h33.57c2.761 0 5 2.238 5 5z"/></svg>