<svg height="16" viewBox="0 0 4.2333333 4.2333333" width="16" xmlns="http://www.w3.org/2000/svg"><path d="m.95178727 1.3812553q0 .1913979-.0112587.3602784-.005629.1632511-.0168881.2589501h.0281468q.12947503-.1913979.35464903-.320873.225174-.129475.5798231-.129475.562935 0 .900696.3940545.3433904.3884252.3433904 1.1652755 0 .7768503-.3433904 1.1709048-.3433903.3940545-.900696.3940545-.3546491 0-.5798231-.129475-.225174-.1294751-.35464903-.3096143h-.03940545l-.1013283.3827958h-.35464906v-4.2783061h.49538281zm.85003183.5798231q-.4784947 0-.6642633.2758381-.18576853.2758382-.18576853.8556612v.022517q0 .5573057.18013923.8556613.1857685.2927262.6811514.2927262.4053132 0 .6023404-.2983556.2026566-.2983555.2026566-.8612906 0-1.142758-.8162558-1.1427576z" fill="#fff" stroke-width=".469111" transform="matrix(.89628217 0 0 .8453452 .566364 .008711)"/></svg>